<svg width="47" height="46" viewBox="0 0 47 46" fill="none" xmlns="http://www.w3.org/2000/svg">
<path d="M45.8519 19.4767L26.2686 1.07698C25.5341 0.387377 24.5383 0 23.5 0C22.4617 0 21.4659 0.387377 20.7314 1.07698L1.1481 19.4767C0.782633 19.8176 0.492933 20.2233 0.295839 20.6702C0.0987454 21.1172 -0.00180817 21.5965 2.46101e-05 22.0803V44.16C2.46101e-05 44.648 0.206349 45.116 0.573607 45.4611C0.940865 45.8061 1.43897 46 1.95836 46H17.625C18.1444 46 18.6425 45.8061 19.0098 45.4611C19.377 45.116 19.5833 44.648 19.5833 44.16V31.2802H27.4167V44.16C27.4167 44.648 27.623 45.116 27.9902 45.4611C28.3575 45.8061 28.8556 46 29.375 46H45.0416C45.561 46 46.0591 45.8061 46.4264 45.4611C46.7937 45.116 47 44.648 47 44.16V22.0803C47.0018 21.5965 46.9013 21.1172 46.7042 20.6702C46.5071 20.2233 46.2174 19.8176 45.8519 19.4767ZM43.0833 42.32H31.3333V29.4402C31.3333 28.9522 31.127 28.4842 30.7597 28.1392C30.3925 27.7941 29.8944 27.6002 29.375 27.6002H17.625C17.1056 27.6002 16.6075 27.7941 16.2403 28.1392C15.873 28.4842 15.6667 28.9522 15.6667 29.4402V42.32H3.91669V22.0803L23.5 3.68055L43.0833 22.0803V42.32Z" fill="white"/>
</svg>
