<svg width="838" height="101" viewBox="0 0 838 101" fill="none" xmlns="http://www.w3.org/2000/svg">
<g filter="url(#filter0_d_330_23)">
<path d="M67.9241 67.808C67.9241 75.3173 65.1508 81.248 59.6041 85.6C54.1428 89.952 47.3588 92.128 39.2521 92.128C34.1321 92.128 29.6948 91.4027 25.9401 89.952C21.5881 88.3307 17.1935 85.4293 12.7561 81.248L7.50813 90.976H5.07613L4.30813 59.104L7.38013 58.848C11.9028 78.4747 22.5268 88.288 39.2521 88.288C44.9695 88.288 50.0468 86.7093 54.4841 83.552C59.4335 79.968 61.9081 75.4027 61.9081 69.856C61.9081 63.1147 58.7508 57.9093 52.4361 54.24C50.0468 52.8747 44.0308 50.6133 34.3881 47.456C25.4281 44.64 19.1135 41.9947 15.4441 39.52C9.30013 35.2533 6.22813 29.664 6.22813 22.752C6.22813 16.2667 8.57479 10.9333 13.2681 6.752C18.0468 2.656 24.1908 0.607994 31.7001 0.607994C41.1721 0.607994 49.1935 3.97866 55.7641 10.72L59.9881 1.376H62.6761L63.9561 30.56H60.7561C58.4521 22.112 55.2948 15.84 51.2841 11.744C46.5908 6.88 40.1908 4.448 32.0841 4.448C26.6228 4.448 22.0148 5.728 18.2601 8.28799C13.9081 11.36 11.7321 15.6267 11.7321 21.088C11.7321 26.5493 14.7615 30.9013 20.8201 34.144C22.6975 35.0827 28.1588 37.0027 37.2041 39.904C47.8708 43.3173 54.8255 46.0907 58.0681 48.224C64.6388 52.6613 67.9241 59.1893 67.9241 67.808ZM96.5171 6.62399C96.5171 8.416 95.9198 9.90933 94.7251 11.104C93.4451 12.2987 91.9091 12.896 90.1171 12.896C88.4105 12.896 86.9598 12.2987 85.7651 11.104C84.4851 9.90933 83.8451 8.416 83.8451 6.62399C83.8451 4.832 84.4851 3.33866 85.7651 2.144C86.9598 0.863998 88.4105 0.223999 90.1171 0.223999C91.9091 0.223999 93.4451 0.863998 94.7251 2.144C95.9198 3.33866 96.5171 4.832 96.5171 6.62399ZM105.093 90.208H76.9331V86.496H80.5171C83.2478 86.496 85.1678 86.0267 86.2771 85.088C87.3011 84.1493 87.8131 82.272 87.8131 79.456V39.52C87.8131 36.448 87.3011 34.5707 86.2771 33.888C85.3385 33.12 82.9491 32.736 79.1091 32.736V29.152L94.2131 27.104V79.456C94.2131 82.272 94.6398 84.1493 95.4931 85.088C96.4318 86.0267 98.1811 86.496 100.741 86.496H105.093V90.208ZM199.306 53.984H194.186C188.81 53.984 186.122 56.8427 186.122 62.56V92.128H182.41L178.954 80.608C172.469 88.288 163.935 92.128 153.354 92.128C141.493 92.128 131.807 87.776 124.298 79.072C117.045 70.7947 113.418 60.5973 113.418 48.48C113.418 35.2533 116.874 24.16 123.786 15.2C131.295 5.472 141.109 0.607994 153.226 0.607994C163.381 0.607994 171.573 3.63733 177.802 9.696L183.434 1.376H186.25L187.786 35.68H184.458C183.178 26.1227 179.978 18.6133 174.858 13.152C169.397 7.34933 162.229 4.448 153.354 4.448C143.285 4.448 135.135 9.61066 128.906 19.936C123.701 28.64 121.098 38.1973 121.098 48.608C121.098 58.848 123.786 67.6373 129.162 74.976C135.477 83.5093 144.138 87.776 155.146 87.776C163.082 87.776 169.482 85.0453 174.346 79.584C178.015 75.4027 179.85 71.4347 179.85 67.68V62.56C179.85 56.8427 177.119 53.984 171.658 53.984H166.538V50.4H199.306V53.984ZM294.101 6.24H288.597C283.562 6.24 281.045 9.056 281.045 14.688V92H277.973L221.781 13.28V77.92C221.781 83.552 224.213 86.368 229.077 86.368H234.453V90.208H205.013V86.368H210.517C215.552 86.368 218.069 83.552 218.069 77.92V14.048C218.069 10.976 217.557 8.88533 216.533 7.77599C215.509 6.752 213.504 6.24 210.517 6.24H205.013V2.39999H222.037L277.333 79.968V14.56C277.333 9.01333 274.901 6.24 270.037 6.24H264.661V2.52799H294.101V6.24ZM400.732 92L375.028 53.801L342.66 7.272V6.32H355.988L381.692 44.519L414.06 91.048V92H400.732ZM343.136 92V91.048L375.028 44.519L400.732 6.32H413.108V7.272L381.216 53.801L355.512 92H343.136ZM568.079 6.24C565.007 6.24 562.788 6.92266 561.423 8.28799C560.058 9.56799 558.82 12.1707 557.711 16.096L537.231 90.208H533.519L516.239 27.616L498.959 90.208H495.247L474.383 14.56C473.53 11.5733 472.25 9.43999 470.543 8.16C468.836 6.88 466.191 6.24 462.607 6.24V2.39999H489.103V6.24H485.775C481.935 6.24 480.015 7.30666 480.015 9.43999C480.015 10.72 480.57 13.3227 481.679 17.248L498.447 77.536L514.191 20.32L512.399 14.176C511.546 11.1893 510.308 9.14133 508.687 8.032C507.066 6.83733 504.506 6.24 501.007 6.24V2.39999H528.399V6.24H523.919C520.25 6.24 518.415 7.34933 518.415 9.56799C518.415 10.848 519.012 13.792 520.207 18.4L536.719 77.92L553.231 17.504C554.255 13.8347 554.767 11.36 554.767 10.08C554.767 8.62933 554.17 7.60533 552.975 7.008C551.78 6.496 549.391 6.24 545.807 6.24V2.39999H568.079V6.24ZM660.4 90.208H630.064V86.496H633.392C638.683 86.496 641.328 84.832 641.328 81.504C641.328 80.6507 640.731 78.688 639.536 75.616L633.648 60.384H596.272L591.792 72.16C590.171 76.4267 589.36 79.328 589.36 80.864C589.36 82.912 590.299 84.3627 592.176 85.216C594.053 86.0693 597.467 86.496 602.416 86.496V90.208H573.232V86.496C577.584 85.8987 580.528 84.9173 582.064 83.552C583.344 82.4427 584.752 79.8827 586.288 75.872L614.32 2.39999H618.288L647.472 78.176C649.605 83.7227 653.915 86.496 660.4 86.496V90.208ZM632.24 56.416L614.96 11.232L597.808 56.416H632.24ZM753.29 6.24C749.279 6.24 746.207 7.17867 744.074 9.056C741.941 10.848 740.063 13.9627 738.442 18.4L711.818 90.208H708.234L679.818 15.456C677.514 9.312 672.735 6.24 665.482 6.24V2.39999H696.586V6.24H690.57C686.986 6.24 685.194 7.52 685.194 10.08C685.194 11.0187 685.578 12.4693 686.346 14.432L711.306 80.48L733.578 20.32C735.626 14.8587 736.65 11.2747 736.65 9.56799C736.65 7.34933 733.663 6.24 727.69 6.24H724.874V2.39999H753.29V6.24ZM833.621 59.36L831.445 90.208H758.357V86.368H762.197C765.44 86.368 767.744 85.6853 769.109 84.32C770.474 83.04 771.157 80.6507 771.157 77.152V14.816C771.157 9.09866 768.426 6.24 762.965 6.24H758.357V2.39999H830.037L831.701 32.224H829.141C827.093 21.1307 824.49 14.0053 821.333 10.848C818.176 7.776 811.69 6.24 801.877 6.24H786.389C783.232 6.24 780.97 6.88 779.605 8.16C778.24 9.43999 777.557 11.7013 777.557 14.944V42.464H793.429C798.976 42.464 802.602 41.312 804.309 39.008C806.016 36.704 806.869 32.096 806.869 25.184H810.325V63.328H806.869C806.869 56.2453 806.058 51.6373 804.437 49.504C802.73 47.3707 799.061 46.304 793.429 46.304H777.557V77.152C777.557 80.736 778.24 83.168 779.605 84.448C780.885 85.728 783.189 86.368 786.517 86.368H805.717C814.677 86.368 820.949 84.1067 824.533 79.584C827.178 76.1707 829.397 69.4293 831.189 59.36H833.621Z" fill="#D6C2C2"/>
</g>
<defs>
<filter id="filter0_d_330_23" x="0.308105" y="0.224121" width="837.313" height="99.9038" filterUnits="userSpaceOnUse" color-interpolation-filters="sRGB">
<feFlood flood-opacity="0" result="BackgroundImageFix"/>
<feColorMatrix in="SourceAlpha" type="matrix" values="0 0 0 0 0 0 0 0 0 0 0 0 0 0 0 0 0 0 127 0" result="hardAlpha"/>
<feOffset dy="4"/>
<feGaussianBlur stdDeviation="2"/>
<feComposite in2="hardAlpha" operator="out"/>
<feColorMatrix type="matrix" values="0 0 0 0 0 0 0 0 0 0 0 0 0 0 0 0 0 0 0.25 0"/>
<feBlend mode="normal" in2="BackgroundImageFix" result="effect1_dropShadow_330_23"/>
<feBlend mode="normal" in="SourceGraphic" in2="effect1_dropShadow_330_23" result="shape"/>
</filter>
</defs>
</svg>
