<svg width="1439" height="1024" viewBox="0 0 1439 1024" fill="none" xmlns="http://www.w3.org/2000/svg">
<path d="M480.501 -70.5528C438.502 -160.078 232.052 -203.671 266.689 -25.2554C272.369 3.99876 273.098 54.4019 267.158 115.776C261.716 171.997 151.644 203.116 118.066 275.848C65.4043 389.915 263.978 468.639 232.619 528.614C191.545 607.166 65.0975 641.609 -4.76449 684.742C-70.5321 725.347 -112.294 790.288 -128.191 856.965C-156.079 973.941 -104.358 1096.26 37.0188 1101.88C107.791 1104.7 201.03 1078.27 317.997 1007.29C370.293 975.559 416.413 949.396 457.408 928.228C562.924 873.747 534.933 1001.88 660.631 1006.16C732.253 1008.59 806.682 897.806 863.499 956.579C903.899 998.371 950.269 1049.09 1016.42 1101.17C1132.6 1192.63 1277.51 1205.67 1297.57 1074.52C1307.04 1012.61 1288.68 918.568 1226.34 785.476C1186.45 700.305 1284.98 702.985 1295.97 593.635C1306.96 484.286 1213.97 434.183 1281.01 388.718L1282.36 387.807C1333.46 353.157 1387.97 316.201 1417.56 245.468C1443.06 184.539 1440.41 124.286 1417.01 78.0583C1391.97 28.5843 1343.17 -4.82503 1279.7 -5.80517C1216.02 -6.78863 1137.57 24.8764 1053.52 105.721C998.099 159.023 960.04 35.5515 860.484 48.5167C760.928 61.4819 747.481 180.783 687.701 146.392C583.859 86.6531 529.688 34.2973 480.501 -70.5528Z" stroke="#E5C0C0" stroke-opacity="0.4" stroke-width="3"/>
<path d="M684.092 421.26C677.7 407.516 648.136 411.228 646.689 426.15C645.041 443.141 655.504 465.241 654.359 482.271C652.15 515.151 638.128 524.555 610.205 541.975C600.196 548.208 593.841 558.177 591.422 568.413C587.178 586.371 595.05 605.149 616.566 606.013C627.336 606.446 641.526 602.389 659.326 591.493C667.284 586.622 674.303 582.605 680.542 579.356C707.698 564.085 733.058 575.896 742.343 583.71C748.492 590.126 755.549 597.912 765.616 605.907C783.297 619.948 809.995 618.012 808.403 601.818C806.154 578.939 758.59 493.669 807.994 478.609C830.943 471.613 830.136 455.942 826.576 448.845C822.765 441.25 815.339 436.121 805.68 435.97C795.988 435.819 779.977 449 771.257 453.09C739.066 468.19 710.323 476.036 684.092 421.26Z" stroke="#E5C0C0" stroke-opacity="0.4" stroke-width="3"/>
<path d="M301.313 13.69C270.559 -148.733 459.221 -108.845 497.724 -26.7731C544.864 73.5638 596.767 120.49 694.179 173.479C748.968 204.584 761.766 95.6521 852.923 83.5143C944.079 71.3766 979.292 183.419 1030.16 134.931C1107.51 61.3906 1179.57 33.0439 1237.86 34.624C1295.77 35.8359 1340.27 66.746 1362.85 112.271C1383.93 154.842 1385.85 210.173 1361.61 265.923C1329.95 332.2 1284.04 373.54 1237.4 407.371C1176.47 449.467 1260.51 495.461 1249.72 595.017C1238.93 694.573 1148.27 691.862 1183.76 768.718C1239.57 889.086 1255.63 973.944 1246.45 1029.69C1227.78 1148.66 1095.14 1136.35 988.443 1052.96C927.261 1005.39 883.875 959.33 845.882 921.996C793.618 868.816 725.259 969.974 659.367 968.197C544.188 964.799 568.93 848.557 472.276 898.335C434.327 917.803 391.796 941.689 343.723 970.542C235.342 1035.04 149.789 1057.39 85.7815 1053.21C-42.7435 1047.63 -89.6043 935.887 -63.9433 829.049C-49.1936 767.975 -10.8231 708.525 49.4725 671.3C115.578 630.485 231.905 598.3 269.478 523.865C298.063 468.53 117.174 396.023 164.883 291.361C195.229 224.305 295.181 195.111 300.207 143.193C305.677 86.6811 305.719 40.403 301.313 13.69Z" stroke="#E5C0C0" stroke-opacity="0.4" stroke-width="3"/>
<path d="M337.49 54.2753C310.665 -91.6219 481.262 -55.5715 516.215 18.7764C561.239 114.261 610.798 155.605 701.637 201.672C751.355 229.389 763.485 131.184 846.11 119.914C928.734 108.644 961.05 208.89 1007.29 165.374C1077.83 99.379 1143.39 74.4422 1196.2 76.612C1248.47 78.0507 1288.6 106.359 1308.69 147.784C1327.44 186.558 1328.6 236.784 1305.65 287.172C1272.23 348.153 1235.7 393.701 1193.97 426.333C1139.24 464.921 1214.21 506.653 1203.63 596.089C1193.06 685.525 1110.4 682.793 1141.44 751.084C1190.63 858.335 1204.37 933.733 1195.5 983.137C1178.24 1089.54 1058.07 1078.01 961.006 1002.95C904.885 960.057 864.548 918.795 829.016 886.04C781.382 838.628 719.191 929.825 659.127 928.714C554.635 926.204 576.091 822.234 488.44 867.146C453.594 884.851 414.713 906.38 370.934 932.258C271.294 990.068 193.554 1008.27 136.405 1002.74C20.9193 997.226 -21.0112 896.425 2.38533 800.077C15.9671 744.806 50.8903 691.042 105.626 657.32C167.879 618.96 273.916 589.139 307.934 519.071C333.703 468.559 170.764 402.509 213.451 307.597C240.521 246.439 330.206 219.267 334.809 171.824C339.803 120.36 340.616 78.3594 337.49 54.2753Z" stroke="#E5C0C0" stroke-opacity="0.4" stroke-width="3"/>
<path d="M372.896 96.6076C349.959 -33.2965 502.754 -0.95127 534.21 65.9427C577.189 156.912 624.484 192.827 708.892 232.145C753.615 256.576 765.096 168.74 839.316 158.297C913.536 147.855 943.005 236.673 984.683 197.97C1048.53 139.279 1107.69 117.661 1155.1 120.427C1201.81 122.097 1237.64 147.906 1255.27 185.381C1271.7 220.499 1272.12 265.802 1250.42 311.011C1215.19 366.916 1187.98 416.82 1151.09 448.367C1102.49 483.584 1168.49 521.207 1158.12 600.849C1147.74 680.492 1072.96 677.728 1099.6 737.706C1142.24 832.233 1153.69 898.447 1145.11 941.69C1129.24 1035.91 1021.34 1025.11 933.768 958.123C882.62 919.743 845.268 883.133 812.142 854.836C769.064 813.017 712.946 894.586 658.616 894.133C564.651 892.501 582.852 800.424 504.069 840.632C472.272 856.637 436.982 875.889 397.429 898.885C306.377 950.216 236.33 964.342 185.95 957.445C83.3267 951.977 46.2613 861.752 67.4289 775.542C79.8634 725.874 111.393 677.601 160.653 647.26C219.151 611.218 315.061 583.655 345.576 517.705C368.569 471.835 223.328 412.002 261.059 326.494C284.893 271.014 364.449 245.766 368.637 202.628C373.161 156.025 374.746 118.15 372.896 96.6076Z" stroke="#E5C0C0" stroke-opacity="0.4" stroke-width="3"/>
<path d="M389.848 115.37C370.838 1.4635 505.561 30.1037 533.465 89.5428C574.324 176.005 619.27 206.487 697.099 239.052C736.749 260.195 747.56 182.732 813.243 173.117C878.926 163.502 905.497 240.887 942.545 207C999.577 155.616 1052.23 137.318 1094.17 140.683C1135.23 142.586 1166.69 165.895 1181.83 199.421C1195.92 230.882 1195.6 271.262 1175.19 311.29C1138.21 362.119 1120.36 416.395 1088.39 446.86C1045.99 478.708 1102.92 512.221 1092.76 582.067C1082.6 651.913 1015.83 649.117 1038.02 700.776C1074.05 782.574 1083.17 839.601 1074.9 876.678C1060.44 958.715 965.021 948.648 887.085 889.727C841 855.863 806.7 823.906 776.038 800.069C737.591 763.846 687.647 835.783 639.148 835.99C555.875 835.235 570.789 755.056 501.015 790.558C472.322 804.863 440.686 821.837 405.429 841.95C323.127 886.8 260.896 896.844 217.376 888.577C127.797 883.153 95.6625 803.506 114.563 727.438C125.828 683.373 153.908 640.593 197.604 613.634C252.244 579.909 337.858 554.603 364.814 492.767C384.99 451.537 257.705 397.922 290.412 321.82C310.968 272.018 380.253 248.695 384.018 209.86C388.063 168.12 390.419 134.371 389.848 115.37Z" stroke="#E5C0C0" stroke-opacity="0.4" stroke-width="3"/>
<path d="M445.197 176.327C430.114 78.6734 546.76 103.544 571.111 155.394C609.843 237.153 652.433 262.135 723.673 287.874C758.248 305.683 768.388 238.765 825.533 229.998C882.678 221.232 906.347 287.011 938.763 258.016C988.978 214.053 1035.13 199.116 1071.58 203.07C1106.99 205.201 1134.1 225.959 1146.74 255.46C1158.49 283.193 1157.42 318.559 1138.31 353.317C1099.59 398.957 1091.09 457.479 1064.04 486.793C1027.84 515.2 1075.7 544.527 1065.76 604.42C1055.82 664.314 997.059 661.493 1014.79 704.719C1044.21 773.605 1051.01 821.318 1043.06 852.148C1030.01 921.817 947.067 912.506 878.776 861.785C837.758 832.512 806.513 805.28 778.318 785.957C744.506 755.41 700.736 817.555 658.071 818.422C585.493 818.546 597.123 750.443 536.358 781.161C510.772 793.734 482.792 808.392 451.832 825.578C378.286 863.846 323.873 869.787 287.213 860.171C210.679 854.804 183.475 785.913 200.108 720.156C210.203 681.794 234.832 644.602 272.964 621.084C323.738 589.752 399.051 566.76 422.45 509.178C439.808 472.682 330.481 425.404 358.164 358.879C375.444 314.866 434.458 293.519 437.799 259.076C441.367 222.291 444.491 192.744 445.197 176.327Z" stroke="#E5C0C0" stroke-opacity="0.4" stroke-width="3"/>
<path d="M479.775 215.273C468.588 133.626 567.401 154.788 588.248 199.182C624.934 276.441 665.258 295.986 730.059 314.964C759.63 329.484 769.121 272.942 817.846 265.003C866.571 257.064 887.388 311.403 915.24 287.225C958.743 250.574 998.482 238.959 1029.53 243.513C1059.37 245.877 1082.16 264.135 1092.34 289.685C1101.77 313.761 1099.96 344.202 1082.1 373.778C1041.56 414.343 1042.4 477.254 1020.21 505.491C990.142 530.527 1029.02 555.743 1019.28 605.835C1009.54 655.927 958.668 653.073 971.99 687.976C994.852 744.125 999.351 782.644 991.69 807.304C980.034 864.781 909.389 856.203 850.599 813.554C814.563 788.799 786.307 766.223 760.522 751.364C731.273 726.416 693.588 778.926 656.666 780.454C594.633 781.458 603.002 725.259 551.121 751.269C528.589 762.143 504.205 774.521 477.479 788.823C412.534 820.607 365.827 822.46 335.951 811.47C272.303 806.147 249.973 747.839 264.374 692.228C273.319 659.471 294.548 627.774 327.195 607.639C374.21 578.621 439.378 557.886 459.268 504.414C473.845 472.559 382.248 431.5 404.966 374.385C419.004 336.051 467.87 316.627 470.795 286.488C473.892 254.567 477.791 229.147 479.775 215.273Z" stroke="#E5C0C0" stroke-opacity="0.4" stroke-width="3"/>
<path d="M515.871 254.211C508.607 188.582 589.326 206.037 606.616 242.969C641.157 315.745 679.106 329.847 737.294 342.053C761.784 353.28 770.598 307.123 810.775 300.01C850.951 292.898 868.863 335.787 892.076 316.431C928.751 287.097 961.975 278.81 987.533 283.967C1011.72 286.566 1030.15 302.324 1037.83 323.923C1044.92 344.34 1042.37 369.854 1025.81 394.244C983.562 429.735 993.736 497.071 976.458 524.236C952.605 545.903 982.402 567.006 972.89 607.289C963.377 647.571 920.528 644.684 929.403 671.253C945.652 714.651 947.836 743.967 940.489 762.45C930.252 807.724 872.098 799.877 822.965 765.305C792.006 745.07 766.815 727.154 743.508 716.765C718.9 697.422 687.398 740.29 656.319 742.481C604.995 744.366 610.081 700.083 567.222 721.383C547.803 730.556 527.081 740.653 504.659 752.068C448.489 777.361 409.612 775.117 386.597 762.746C336.002 757.464 318.605 709.745 330.734 664.287C338.506 637.139 356.279 610.939 383.354 594.188C426.482 567.481 481.334 549.001 497.661 499.631C509.418 472.419 435.793 437.58 453.485 389.878C464.244 357.224 502.834 339.722 505.334 313.888C507.952 286.832 512.615 265.54 515.871 254.211Z" stroke="#E5C0C0" stroke-opacity="0.4" stroke-width="3"/>
<path d="M550.958 293.15C547.586 243.561 610.645 257.301 624.471 286.766C657.069 355.081 692.864 363.728 744.769 369.145C764.311 377.074 772.502 341.311 804.347 335.024C836.193 328.736 851.297 360.158 869.999 345.63C900.049 323.622 926.939 318.67 947.148 324.434C965.817 327.27 979.967 340.528 985.199 358.172C989.981 374.929 986.669 395.513 971.32 414.713C927.105 445.131 946.696 516.943 934.245 543.048C916.476 561.345 937.347 578.332 928.003 608.793C918.659 639.254 883.598 636.331 888.067 654.553C897.783 685.179 897.658 705.273 890.581 717.569C881.705 750.621 835.726 743.504 795.982 717.021C769.928 701.311 747.659 688.062 726.697 682.154C706.596 668.426 681.105 701.641 655.697 704.499C614.803 707.272 616.629 674.921 582.557 691.507L581.611 691.938C565.484 699.278 548.619 706.955 530.728 715.317C483.02 734.11 451.759 727.754 435.487 713.99C397.677 708.749 385.122 671.63 395.047 636.335C401.69 614.801 416.105 594.104 437.755 580.74C477.247 556.336 522.083 540.109 534.937 494.828C543.937 472.26 487.892 443.645 500.651 405.364C508.187 378.392 536.705 362.808 538.795 341.28C540.949 319.091 546.405 301.931 550.958 293.15Z" stroke="#E5C0C0" stroke-opacity="0.4" stroke-width="3"/>
<path d="M586.974 333.979C587.523 300.648 632.431 310.615 642.686 332.481C673.096 396.028 706.468 399.182 751.698 397.789C766.14 402.385 773.645 377.176 796.912 371.742C820.18 366.308 832.361 386.125 846.406 376.49C869.599 361.904 889.946 360.308 904.648 366.653C917.65 369.713 927.419 380.412 930.155 394.024C932.593 407.045 928.546 422.607 914.519 436.532C868.663 461.741 897.539 537.699 890.013 562.627C878.468 577.472 890.248 590.268 881.142 610.772C872.036 631.277 845.035 628.333 845.058 638.128C848.159 655.849 845.724 666.636 838.971 672.69C831.524 693.377 798.077 687.021 768.029 668.742C747.081 657.627 727.904 649.103 709.445 647.7C694.005 639.646 674.723 663.061 655.183 666.574C625.036 670.219 623.583 649.944 598.565 661.741C585.283 667.477 571.788 672.973 557.869 678.57C518.987 690.782 495.586 680.344 486.186 665.251C461.459 660.073 453.846 633.719 461.49 608.743C466.953 592.918 477.897 577.815 493.955 567.897C529.512 545.907 563.986 532.006 573.266 491.019C579.438 473.195 541.412 450.931 549.137 422.241C553.39 401.071 571.609 387.475 573.273 370.35C574.946 353.126 581.157 340.174 586.974 333.979Z" stroke="#E5C0C0" stroke-opacity="0.4" stroke-width="3"/>
<path d="M623.513 372.967C627.965 355.777 654.866 362.002 661.579 376.337C689.85 435.258 720.853 432.944 759.496 424.759C768.88 426.042 775.712 411.302 790.472 406.708C805.232 402.114 814.519 410.402 823.947 405.624C840.344 398.41 854.206 400.156 863.446 407.093C870.824 410.382 876.245 418.552 876.502 428.171C876.609 437.495 871.826 448.082 859.098 456.776C811.551 476.843 849.704 557.09 847.07 580.893C841.705 592.328 844.452 600.97 835.572 611.591C826.691 622.212 807.677 619.24 803.276 620.653C799.799 625.545 795.061 627.074 788.621 626.918C782.587 635.319 761.57 629.709 741.135 619.572C725.241 613.016 709.116 609.185 693.126 612.27C682.306 609.857 669.179 623.55 655.453 627.722C635.964 632.245 631.247 623.967 615.207 631.014C605.025 635.032 595.175 638.228 585.539 640.918C555.394 646.592 539.785 632.063 537.212 615.615C525.475 610.489 522.77 594.814 528.153 580.075C532.448 569.91 539.953 560.353 550.465 553.851C582.15 534.223 606.355 522.612 612.09 485.823C615.456 472.692 595.314 456.715 598.038 437.528C599.03 422.1 607.024 410.459 608.265 397.687C609.462 385.38 616.431 376.597 623.513 372.967Z" stroke="#E5C0C0" stroke-opacity="0.4" stroke-width="3"/>
</svg>
