<svg width="1440" height="1024" viewBox="0 0 1440 1024" fill="none" xmlns="http://www.w3.org/2000/svg">
<g filter="url(#filter0_d_330_10)">
<path d="M449.14 -72.9331C405.534 -167.606 191.205 -213.718 227.174 -25.0461C233.072 5.88965 233.832 59.1895 227.67 124.09C222.024 183.542 107.755 216.442 72.8999 293.353C18.2369 413.971 224.391 497.232 191.839 560.652C149.204 643.716 17.9345 680.13 -54.59 725.737C-122.864 768.672 -166.215 837.342 -182.714 907.85C-211.659 1031.55 -157.956 1160.9 -11.1859 1166.85C62.2865 1169.84 159.081 1141.9 280.505 1066.85C334.794 1033.29 382.672 1005.63 425.231 983.247C534.769 925.641 505.718 1061.14 636.211 1065.67C710.566 1068.25 787.827 951.098 846.815 1013.25C888.759 1057.45 936.901 1111.08 1005.58 1166.16C1126.2 1262.88 1276.64 1276.68 1297.45 1138C1307.28 1072.53 1288.22 973.084 1223.49 832.34C1182.07 742.271 1284.36 745.111 1295.76 629.478C1307.17 513.845 1210.62 460.857 1280.22 412.783L1281.62 411.82C1334.67 375.182 1391.25 336.106 1421.97 261.31C1448.44 196.881 1445.68 133.165 1421.39 84.2788C1395.39 31.96 1344.73 -3.37256 1278.84 -4.41311C1212.73 -5.45717 1131.28 28.0227 1044.03 113.508C986.499 169.87 946.98 39.2999 843.627 53.0038C740.275 66.7077 726.322 192.864 664.259 156.493C556.451 93.3141 500.21 37.9459 449.14 -72.9331Z" stroke="#E9CECE" stroke-opacity="0.5" stroke-width="3"/>
<path d="M631.389 446.691C621.467 432.528 588.818 441.991 590.121 458.88C591.604 478.11 607.766 500.849 609.826 520.031C613.802 557.068 599.821 570.074 571.722 594.516C561.649 603.265 556.435 615.519 555.719 627.361C554.461 648.135 567.045 667.64 591.507 664.726C603.753 663.267 618.976 656.189 636.929 640.84C644.956 633.978 652.09 628.238 658.495 623.492C686.15 601.583 717.107 610.173 729.129 617.206C737.334 623.247 746.834 630.651 759.775 637.746C782.501 650.205 812.263 643.236 807.279 625.478C800.237 600.39 729.752 513.947 782.569 488.263C807.103 476.332 803.108 459.015 797.691 451.749C791.893 443.972 782.499 439.596 771.564 441.168C760.592 442.746 745.109 460.319 736.068 466.449C702.694 489.076 671.786 502.998 631.389 446.691Z" stroke="#E9CECE" stroke-opacity="0.5" stroke-width="3"/>
<path d="M263.122 16.1396C231.184 -155.62 427.046 -113.427 467.023 -26.6363C515.968 79.47 569.854 129.096 670.986 185.137C727.867 218.033 741.146 102.842 835.78 90.0121C930.413 77.1827 966.977 195.667 1019.78 144.395C1100.08 66.6333 1174.89 36.6621 1235.4 38.3368C1295.52 39.622 1341.72 72.3113 1365.16 120.454C1387.05 165.473 1389.04 223.984 1363.88 282.936C1331.02 353.02 1283.37 396.733 1234.94 432.506C1171.69 477.017 1258.94 525.659 1247.75 630.936C1236.55 736.213 1142.43 733.34 1179.29 814.616C1237.23 941.905 1253.9 1031.64 1244.38 1090.59C1225.01 1216.4 1087.3 1203.37 976.532 1115.18C913.013 1064.88 867.97 1016.16 828.524 976.681C774.263 920.441 703.302 1027.41 634.897 1025.53C515.324 1021.93 541.001 899.004 440.663 951.637C401.268 972.221 357.116 997.477 307.211 1027.99C194.699 1096.18 105.884 1119.81 39.4342 1115.39C-93.9945 1109.48 -142.65 991.31 -116.017 878.334C-100.709 813.751 -60.878 750.887 1.71546 711.527C70.3403 668.37 191.104 634.343 230.105 555.632C259.777 497.12 71.982 420.434 121.505 309.76C153.004 238.852 256.767 207.987 261.981 153.085C267.657 93.3258 267.698 44.3881 263.122 16.1396Z" stroke="#E9CECE" stroke-opacity="0.5" stroke-width="3"/>
<path d="M300.681 59.0596C272.824 -95.2241 449.931 -57.0909 486.222 21.532C532.97 122.507 584.423 166.23 678.731 214.951C730.347 244.264 742.934 140.416 828.71 128.503C914.486 116.59 948.04 222.601 996.037 176.587C1069.27 106.803 1137.33 80.4373 1192.16 82.7351C1246.42 84.2599 1288.08 114.197 1308.94 158.005C1328.4 199.008 1329.62 252.121 1305.79 305.403C1271.1 369.887 1233.18 418.05 1189.86 452.555C1133.04 493.356 1210.87 537.492 1199.9 632.067C1188.93 726.643 1103.12 723.748 1135.35 795.966C1186.42 909.383 1200.69 989.116 1191.49 1041.36C1173.58 1153.87 1048.81 1141.67 948.046 1062.3C889.78 1016.93 847.902 973.297 811.012 938.658C761.558 888.518 697 984.952 634.645 983.773C526.167 981.112 548.434 871.169 457.442 918.656C421.268 937.376 380.906 960.14 335.458 987.503C232.02 1048.63 151.316 1067.87 91.9854 1062.02C-27.9061 1056.18 -71.4427 949.585 -47.1598 847.701C-33.0634 789.255 3.18862 732.403 60.0102 696.747C124.636 656.186 234.717 624.658 270.027 550.565C296.777 497.152 127.617 427.296 171.927 326.931C200.025 262.261 293.13 233.533 297.906 183.364C303.087 128.942 303.928 84.528 300.681 59.0596Z" stroke="#E9CECE" stroke-opacity="0.5" stroke-width="3"/>
<path d="M337.44 103.827C313.62 -33.5442 472.246 0.66977 504.907 71.4102C549.531 167.61 598.632 205.592 686.263 247.175C732.694 273.013 744.608 180.13 821.659 169.092C898.709 158.054 929.308 251.978 972.574 211.054C1038.85 148.994 1100.27 126.137 1149.49 129.065C1197.98 130.835 1235.18 158.129 1253.48 197.759C1270.54 234.896 1270.98 282.803 1248.46 330.608C1211.89 389.724 1183.64 442.494 1145.35 475.852C1094.89 513.09 1163.42 552.879 1152.65 637.098C1141.89 721.317 1064.25 718.39 1091.91 781.816C1136.19 881.778 1148.07 951.799 1139.17 997.526C1122.7 1097.16 1010.69 1085.73 919.765 1014.89C866.663 974.301 827.884 935.585 793.492 905.66C748.768 861.435 690.515 947.688 634.112 947.205C536.562 945.473 555.452 848.106 473.666 890.619C440.656 907.542 404.022 927.898 362.961 952.213C268.439 1006.49 195.72 1021.42 143.418 1014.12C36.8788 1008.34 -1.60638 912.923 20.3633 821.761C33.2689 769.239 65.9981 718.194 117.135 686.112C177.863 648.003 277.431 618.862 309.105 549.124C332.973 500.618 182.186 437.338 221.351 346.918C246.092 288.251 328.681 261.558 333.026 215.94C337.719 166.66 339.363 126.608 337.44 103.827Z" stroke="#E9CECE" stroke-opacity="0.5" stroke-width="3"/>
<path d="M355.04 123.668C335.298 3.21498 475.162 33.5098 504.134 96.3666C546.558 187.801 593.221 220.038 674.021 254.478C715.184 276.84 726.403 194.925 794.592 184.762C862.78 174.598 890.369 256.432 928.828 220.601C988.033 166.267 1042.7 146.921 1086.23 150.482C1128.86 152.497 1161.53 177.147 1177.24 212.601C1191.87 245.871 1191.54 288.572 1170.35 330.899C1131.97 384.647 1113.44 442.041 1080.25 474.255C1036.24 507.93 1095.34 543.372 1084.8 617.232C1074.26 691.091 1004.94 688.13 1027.97 742.76C1065.38 829.261 1074.86 889.566 1066.28 928.774C1051.27 1015.52 952.209 1004.87 871.297 942.561C823.452 906.747 787.841 872.952 756.007 847.743C716.092 809.435 664.247 885.504 613.897 885.719C527.447 884.915 542.926 800.129 470.491 837.667C440.705 852.793 407.863 870.74 371.262 892.007C285.823 939.429 221.218 950.046 176.038 941.301C83.0414 935.56 49.6755 851.333 69.2924 770.895C80.9842 724.298 110.132 679.061 155.494 650.556C212.216 614.896 301.094 588.141 329.076 522.754C350.019 479.156 217.874 422.45 251.824 341.978C273.161 289.314 345.088 264.655 348.994 223.589C353.191 179.45 355.634 143.761 355.04 123.668Z" stroke="#E9CECE" stroke-opacity="0.5" stroke-width="3"/>
<path d="M412.504 188.133C396.84 84.8657 517.938 111.173 543.221 166.005C583.436 252.465 627.653 278.886 701.612 306.107C737.507 324.942 748.03 254.179 807.354 244.913C866.678 235.646 891.255 305.208 924.906 274.547C977.034 228.062 1024.94 212.269 1062.79 216.453C1099.55 218.708 1127.69 240.661 1140.82 271.858C1153.01 301.186 1151.91 338.584 1132.07 375.339C1091.87 423.599 1083.06 485.484 1054.98 516.481C1017.4 546.517 1067.08 577.533 1056.77 640.868C1046.46 704.203 985.452 701.216 1003.87 746.928C1034.41 819.775 1041.47 870.23 1033.22 902.832C1019.68 976.503 933.569 966.652 862.669 913.012C820.085 882.054 787.645 853.255 758.374 832.819C723.27 800.515 677.834 866.229 633.541 867.142C558.195 867.269 570.264 795.253 507.183 827.732C480.622 841.027 451.575 856.525 419.435 874.697C343.085 915.159 286.597 921.438 248.538 911.267C169.083 905.586 140.837 832.734 158.101 763.2C168.578 722.633 194.144 683.305 233.729 658.439C286.439 625.309 364.623 601.001 388.911 540.111C406.929 501.518 293.428 451.516 322.164 381.171C340.099 334.629 401.364 312.059 404.83 275.636C408.532 236.738 411.773 205.493 412.504 188.133Z" stroke="#E9CECE" stroke-opacity="0.5" stroke-width="3"/>
<path d="M448.405 229.319C436.785 142.979 539.369 165.364 561.015 212.31C599.106 294.012 640.969 314.683 708.243 334.755C738.944 350.111 748.793 290.321 799.376 281.929C849.959 273.536 871.575 331 900.488 305.435C945.648 266.679 986.903 254.4 1019.13 259.218C1050.11 261.719 1073.78 281.028 1084.34 308.047C1094.13 333.507 1092.25 365.698 1073.72 396.972C1031.63 439.865 1032.51 506.393 1009.47 536.25C978.263 562.724 1018.62 589.391 1008.52 642.362C998.411 695.332 945.596 692.311 959.428 729.22C983.166 788.597 987.839 829.33 979.887 855.408C967.79 916.187 894.45 907.111 833.415 862.008C796.002 835.827 766.667 811.952 739.896 796.237C709.531 769.854 670.411 825.379 632.08 826.992C567.681 828.05 576.366 768.622 522.507 796.124C499.116 807.621 473.803 820.709 446.058 835.831C378.637 869.437 330.149 871.394 299.132 859.771C233.055 854.138 209.87 792.477 224.816 733.671C234.101 699.033 256.138 665.515 290.029 644.225C338.835 613.542 406.489 591.619 427.134 535.076C442.265 501.391 347.171 457.967 370.752 397.571C385.323 357.034 436.052 336.497 439.087 304.626C442.3 270.871 446.346 243.99 448.405 229.319Z" stroke="#E9CECE" stroke-opacity="0.5" stroke-width="3"/>
<path d="M485.88 270.497C478.335 201.097 562.134 219.559 580.086 258.615C615.95 335.575 655.348 350.49 715.756 363.402C741.181 375.276 750.329 326.467 792.037 318.948C833.746 311.429 852.344 356.784 876.441 336.318C914.514 305.3 949.004 296.539 975.538 301.994C1000.65 304.744 1019.78 321.409 1027.76 344.249C1035.12 365.84 1032.47 392.82 1015.28 418.611C971.425 456.138 981.991 527.345 964.056 556.07C939.295 578.981 970.229 601.299 960.357 643.896C950.484 686.493 906 683.436 915.215 711.533C932.087 757.427 934.357 788.427 926.73 807.972C916.106 855.848 855.732 847.546 804.723 810.984C772.581 789.584 746.428 770.637 722.231 759.649C696.683 739.193 663.983 784.522 631.718 786.837C578.435 788.828 583.713 742 539.22 764.521C519.061 774.22 497.549 784.896 474.272 796.966C415.961 823.708 375.6 821.333 351.706 808.25C299.181 802.661 281.117 752.198 293.706 704.128C301.773 675.421 320.222 647.716 348.329 630.005C393.101 601.765 450.044 582.227 466.991 530.021C479.195 501.245 402.759 464.399 421.122 413.958C432.29 379.427 472.351 360.922 474.945 333.603C477.661 304.992 482.5 282.477 485.88 270.497Z" stroke="#E9CECE" stroke-opacity="0.5" stroke-width="3"/>
<path d="M522.309 311.676C518.805 259.237 584.271 273.771 598.626 304.93C632.471 377.174 669.633 386.319 723.519 392.051C743.806 400.437 752.307 362.62 785.368 355.973C818.428 349.326 834.11 382.555 853.525 367.193C884.72 343.922 912.635 338.687 933.615 344.784C952.996 347.784 967.688 361.805 973.12 380.464C978.086 398.183 974.649 419.95 958.716 440.252C912.816 472.416 933.159 548.356 920.234 575.961C901.788 595.309 923.457 613.273 913.759 645.484C904.06 677.694 867.661 674.602 872.301 693.871C882.39 726.258 882.262 747.507 874.916 760.508C865.703 795.46 817.969 787.931 776.707 759.923C749.659 743.309 726.54 729.297 704.777 723.048C683.908 708.529 657.447 743.651 631.07 746.673C588.616 749.602 590.509 715.393 555.139 732.929L554.162 733.382C537.418 741.144 519.909 749.262 501.334 758.104C451.807 777.975 419.353 771.251 402.459 756.695C363.207 751.15 350.17 711.897 360.472 674.575C367.367 651.803 382.33 629.917 404.806 615.787C445.802 589.983 492.348 572.826 505.689 524.944C515.031 501.079 456.846 470.816 470.089 430.336C477.912 401.815 507.516 385.337 509.685 362.572C511.919 339.108 517.583 320.962 522.309 311.676Z" stroke="#E9CECE" stroke-opacity="0.5" stroke-width="3"/>
<path d="M559.7 354.854C560.268 319.608 606.891 330.15 617.538 353.274C649.112 420.474 683.758 423.812 730.713 422.342C745.706 427.203 753.496 400.545 777.651 394.801C801.806 389.056 814.452 410.013 829.033 399.824C853.109 384.402 874.233 382.716 889.496 389.427C902.994 392.663 913.136 403.978 915.978 418.372C918.51 432.141 914.309 448.598 899.749 463.322C852.144 489.977 882.127 570.302 874.315 596.662C862.331 612.36 874.561 625.891 865.109 647.574C855.657 669.257 827.626 666.141 827.65 676.499C830.871 695.239 828.343 706.645 821.333 713.047C813.603 734.922 778.88 728.199 747.685 708.868C725.937 697.113 706.027 688.098 686.864 686.612C670.834 678.095 650.818 702.855 630.533 706.568C599.236 710.421 597.727 688.98 571.755 701.453C557.966 707.518 543.957 713.329 529.507 719.248C489.143 732.158 464.849 721.119 455.088 705.158C429.418 699.68 421.513 671.812 429.447 645.401C435.117 628.667 446.478 612.696 463.148 602.21C500.06 578.958 535.848 564.26 545.479 520.918C551.886 502.07 512.408 478.524 520.425 448.186C524.84 425.8 543.753 411.424 545.48 393.314C547.215 375.101 553.662 361.405 559.7 354.854Z" stroke="#E9CECE" stroke-opacity="0.5" stroke-width="3"/>
<path d="M597.636 396.086C602.258 377.907 630.185 384.492 637.155 399.651C666.508 461.961 698.694 459.515 738.811 450.862C748.553 452.219 755.645 436.633 770.967 431.776C786.29 426.919 795.932 435.684 805.72 430.632C822.742 423.004 837.133 424.851 846.726 432.188C854.385 435.666 860.013 444.306 860.281 454.478C860.393 464.337 855.428 475.533 842.215 484.726C792.855 505.943 832.469 590.804 829.736 615.976C824.167 628.067 827.019 637.206 817.801 648.437C808.582 659.668 788.843 656.523 784.274 658.018C780.664 663.19 775.745 664.807 769.06 664.641C762.796 673.524 740.977 667.591 719.762 656.87C703.261 649.936 686.521 645.884 669.921 649.146C658.687 646.593 645.061 661.073 630.812 665.483C610.58 670.265 605.682 661.51 589.031 668.961C578.46 673.21 568.234 676.589 558.232 679.433C526.937 685.431 510.732 670.066 508.059 652.673C495.873 647.252 493.064 630.675 498.652 615.09C503.111 604.34 510.901 594.235 521.814 587.36C554.706 566.606 579.834 554.329 585.785 515.426C589.279 501.541 568.368 484.644 571.194 464.355C572.223 448.04 580.521 435.731 581.809 422.225C583.05 409.21 590.285 399.923 597.636 396.086Z" stroke="#E9CECE" stroke-opacity="0.5" stroke-width="3"/>
</g>
<defs>
<filter id="filter0_d_330_10" x="-195.762" y="-156.745" width="1642" height="1406.69" filterUnits="userSpaceOnUse" color-interpolation-filters="sRGB">
<feFlood flood-opacity="0" result="BackgroundImageFix"/>
<feColorMatrix in="SourceAlpha" type="matrix" values="0 0 0 0 0 0 0 0 0 0 0 0 0 0 0 0 0 0 127 0" result="hardAlpha"/>
<feOffset dy="4"/>
<feGaussianBlur stdDeviation="2"/>
<feComposite in2="hardAlpha" operator="out"/>
<feColorMatrix type="matrix" values="0 0 0 0 0 0 0 0 0 0 0 0 0 0 0 0 0 0 0.25 0"/>
<feBlend mode="normal" in2="BackgroundImageFix" result="effect1_dropShadow_330_10"/>
<feBlend mode="normal" in="SourceGraphic" in2="effect1_dropShadow_330_10" result="shape"/>
</filter>
</defs>
</svg>
